<?xml version="1.0" encoding="UTF-8" standalone="no"?> <svg id="Layer_1" data-name="Layer 1" xmlns="http://www.w3.org/2000/svg" xmlns:xlink="http://www.w3.org/1999/xlink" viewBox="0 0 48 48"><defs><style>.cls-1{fill:url(#radial-gradient);}.cls-2{fill:url(#radial-gradient-2);}.cls-3{fill:url(#radial-gradient-3);}.cls-4{fill:url(#radial-gradient-4);}.cls-5{fill:url(#radial-gradient-5);}.cls-6{fill:url(#radial-gradient-6);}.cls-7{fill:url(#radial-gradient-7);}.cls-8{fill:url(#radial-gradient-8);}</style><radialGradient id="radial-gradient" cx="17.911" cy="14.643" r="27.547" gradientUnits="userSpaceOnUse"><stop offset="0" stop-color="#edf1f2"/><stop offset="1" stop-color="#c6cbcc"/></radialGradient><radialGradient id="radial-gradient-2" cx="17.589" cy="13.036" r="27.732" gradientUnits="userSpaceOnUse"><stop offset="0" stop-color="#3e4154"/><stop offset="1" stop-color="#1b2129"/></radialGradient><radialGradient id="radial-gradient-3" cx="29.643" cy="28.625" r="16.871" gradientTransform="translate(62.91 -1.018) rotate(90) scale(1 1.162)" gradientUnits="userSpaceOnUse"><stop offset="0.029" stop-color="#c2763e"/><stop offset="1" stop-color="#8a552e"/></radialGradient><radialGradient id="radial-gradient-4" cx="41.027" cy="28.143" r="17.719" gradientTransform="matrix(0.006, 1, 1.063, -0.006, 0.005, -12.716)" gradientUnits="userSpaceOnUse"><stop offset="0" stop-color="#fff"/><stop offset="0.337" stop-color="#fcfcfc"/><stop offset="0.617" stop-color="#f1f3f3"/><stop offset="0.875" stop-color="#e0e3e4"/><stop offset="1" stop-color="#d5d9da"/></radialGradient><radialGradient id="radial-gradient-5" cx="29.857" cy="28.143" r="17.719" gradientTransform="matrix(-0.006, 1, -1.063, -0.006, 59.932, -1.546)" xlink:href="#radial-gradient-4"/><radialGradient id="radial-gradient-6" cx="29.804" cy="27.982" r="13.154" gradientTransform="translate(59.538 -1.821) rotate(90) scale(1 1.063)" gradientUnits="userSpaceOnUse"><stop offset="0.079" stop-color="#fff"/><stop offset="0.39" stop-color="#fcfcfc"/><stop offset="0.647" stop-color="#f1f3f3"/><stop offset="0.885" stop-color="#e0e3e4"/><stop offset="1" stop-color="#d5d9da"/></radialGradient><radialGradient id="radial-gradient-7" cx="9.152" cy="35.696" r="9.146" gradientUnits="userSpaceOnUse"><stop offset="0" stop-color="#34ca82"/><stop offset="1" stop-color="#37a477"/></radialGradient><radialGradient id="radial-gradient-8" cx="8.67" cy="36.339" r="8.046" gradientUnits="userSpaceOnUse"><stop offset="0" stop-color="#fff"/><stop offset="0.332" stop-color="#fcfcfc"/><stop offset="0.616" stop-color="#f1f2f3"/><stop offset="0.881" stop-color="#e0e3e3"/><stop offset="1" stop-color="#d5d9da"/></radialGradient></defs><circle class="cls-1" cx="24" cy="22" r="20"/><path class="cls-2" d="M32,20.454l5.8-1.884,6.177,4.49c.02-.35.03-.7.03-1.06A19.867,19.867,0,0,0,39.53,9.41l-2.364,7.261L30.51,18.833l-5.51-4V7.822L31.18,3.33a20.046,20.046,0,0,0-14.36,0L23,7.822V14.83l-5.51,4-6.656-2.162L8.47,9.41A19.867,19.867,0,0,0,4,22c0,.36.01.71.03,1.06l6.177-4.49,5.8,1.884a.975.975,0,0,0,.044.281L18.408,28,14.859,32.88H7.23a19.912,19.912,0,0,0,11.61,8.44l-2.362-7.265,3.2-4.4h8.652l3.2,4.4L29.16,41.32a19.912,19.912,0,0,0,11.61-8.44H33.141L29.592,28l2.359-7.26A.975.975,0,0,0,32,20.454Z"/><path class="cls-3" d="M45.281,35.048a20.09,20.09,0,0,0-30.562,0,3.028,3.028,0,0,0,0,3.9,20.09,20.09,0,0,0,30.562,0A3.028,3.028,0,0,0,45.281,35.048Z"/><path class="cls-4" d="M20,37a13.93,13.93,0,0,1-1.17,5.6,17.869,17.869,0,0,0,1.72,1.04,15.928,15.928,0,0,0,0-13.28,17.869,17.869,0,0,0-1.72,1.04A13.93,13.93,0,0,1,20,37Z"/><path class="cls-5" d="M40,37a13.93,13.93,0,0,0,1.17,5.6,17.869,17.869,0,0,1-1.72,1.04,15.928,15.928,0,0,1,0-13.28,17.869,17.869,0,0,1,1.72,1.04A13.93,13.93,0,0,0,40,37Z"/><path class="cls-6" d="M34,36H33V35a1,1,0,0,0-2,0v1H29V35a1,1,0,0,0-2,0v1H26a1,1,0,0,0,0,2h1v1a1,1,0,0,0,2,0V38h2v1a1,1,0,0,0,2,0V38h1a1,1,0,0,0,0-2Z"/><circle class="cls-7" cx="10.5" cy="37.5" r="7.5"/><path class="cls-8" d="M9.086,36.086a7.428,7.428,0,0,1-6.039,2.149,6.275,6.275,0,0,1-.042-.735,6.193,6.193,0,0,1,.12-1.266,5.476,5.476,0,0,0,6.109-6.109,6.193,6.193,0,0,1,1.266-.12,6.275,6.275,0,0,1,.735.042A7.428,7.428,0,0,1,9.086,36.086Z"/><path class="cls-8" d="M11.766,44.875A6.193,6.193,0,0,1,10.5,45a6.275,6.275,0,0,1-.735-.042,7.469,7.469,0,0,1,8.188-8.188A6.275,6.275,0,0,1,18,37.5a6.193,6.193,0,0,1-.12,1.266,5.476,5.476,0,0,0-6.109,6.109Z"/></svg>